<?xml version="1.0" encoding="utf-8"?>
<!-- Generator: Adobe Illustrator 18.1.0, SVG Export Plug-In . SVG Version: 6.00 Build 0)  -->
<svg version="1.1" id="Layer_1" xmlns="http://www.w3.org/2000/svg" xmlns:xlink="http://www.w3.org/1999/xlink" x="0px" y="0px"
	 viewBox="28.6 129.8 350.3 28.5" enable-background="new 28.6 129.8 350.3 28.5" xml:space="preserve">
<g>
	<polygon fill="#1C1C1C" points="38.2,131.1 38.2,157.2 37.6,157.2 37.6,131.1 29.3,131.1 29.3,130.5 46.6,130.5 46.5,131.1 	"/>
</g>
<g>
	<g>
		<defs>
			<rect id="SVGID_1_" x="28.6" y="129.8" width="350.4" height="46.2"/>
		</defs>
		<clipPath id="SVGID_2_">
			<use xlink:href="#SVGID_1_"  overflow="visible"/>
		</clipPath>
		<g clip-path="url(#SVGID_2_)">
			<path fill="#1C1C1C" d="M38.2,157.9h-0.6c-0.4,0-0.8-0.3-0.8-0.8v-25.4h-7.6c-0.4,0-0.8-0.3-0.8-0.8v-0.6c0-0.4,0.3-0.8,0.8-0.8
				h17.3c0.2,0,0.4,0.1,0.6,0.3s0.2,0.4,0.2,0.6l-0.1,0.6c-0.1,0.4-0.4,0.6-0.7,0.6h-7.6v25.4C38.9,157.6,38.6,157.9,38.2,157.9z"/>
		</g>
	</g>
</g>
<g>
	<polygon fill="#1C1C1C" points="57.4,143.3 57.4,157.2 56.8,157.2 56.8,130.5 57.4,130.5 57.4,142.8 72.1,142.8 72.1,130.5 
		72.7,130.5 72.7,157.2 72.1,157.2 72.1,143.3 	"/>
</g>
<g>
	<g>
		<defs>
			<rect id="SVGID_3_" x="28.6" y="129.8" width="350.4" height="46.2"/>
		</defs>
		<clipPath id="SVGID_4_">
			<use xlink:href="#SVGID_3_"  overflow="visible"/>
		</clipPath>
		<g clip-path="url(#SVGID_4_)">
			<path fill="#1C1C1C" d="M73.2,157.9h-0.6c-0.4,0-0.8-0.3-0.8-0.8v-13.1H58.7v13.1c0,0.4-0.3,0.8-0.8,0.8h-0.6
				c-0.4,0-0.8-0.3-0.8-0.8v-26.7c0-0.4,0.3-0.8,0.8-0.8h0.6c0.4,0,0.8,0.3,0.8,0.8v11.6h13.3v-11.6c0-0.4,0.3-0.8,0.8-0.8h0.6
				c0.4,0,0.8,0.3,0.8,0.8v26.7C74,157.6,73.7,157.9,73.2,157.9z"/>
		</g>
	</g>
</g>
<g>
	<polygon fill="#1C1C1C" points="87.8,131.1 87.8,142.8 97.8,142.8 97.8,143.3 87.8,143.3 87.8,156.7 99.8,156.7 99.8,157.2 
		87.2,157.2 87.2,130.5 99.5,130.5 99.5,131.1 	"/>
</g>
<g>
	<g>
		<defs>
			<rect id="SVGID_5_" x="28.6" y="129.8" width="350.4" height="46.2"/>
		</defs>
		<clipPath id="SVGID_6_">
			<use xlink:href="#SVGID_5_"  overflow="visible"/>
		</clipPath>
		<g clip-path="url(#SVGID_6_)">
			<path fill="#1C1C1C" d="M99.8,157.9H87.2c-0.4,0-0.8-0.3-0.8-0.8v-26.7c0-0.4,0.3-0.8,0.8-0.8h12.3c0.2,0,0.4,0.1,0.6,0.3
				c0.1,0.2,0.2,0.4,0.2,0.6l-0.1,0.5c-0.1,0.4-0.4,0.6-0.8,0.6H88.5v10.3h9.3c0.4,0,0.8,0.3,0.8,0.8v0.5c0,0.4-0.3,0.8-0.8,0.8
				h-9.3v11.8h11.4c0.4,0,0.8,0.3,0.8,0.8v0.5C100.6,157.6,100.3,157.9,99.8,157.9z"/>
		</g>
	</g>
</g>
<g>
	<polygon fill="#1C1C1C" points="128.3,131.1 128.3,142.8 138.4,142.8 138.4,143.3 128.3,143.3 128.3,156.7 140.4,156.7 
		140.4,157.2 127.8,157.2 127.8,130.5 140.1,130.5 140,131.1 	"/>
</g>
<g>
	<g>
		<defs>
			<rect id="SVGID_7_" x="28.6" y="129.8" width="350.4" height="46.2"/>
		</defs>
		<clipPath id="SVGID_8_">
			<use xlink:href="#SVGID_7_"  overflow="visible"/>
		</clipPath>
		<g clip-path="url(#SVGID_8_)">
			<path fill="#1C1C1C" d="M140.4,157.9h-12.6c-0.4,0-0.8-0.3-0.8-0.8v-26.7c0-0.4,0.3-0.8,0.8-0.8H140c0.2,0,0.4,0.1,0.6,0.3
				c0.1,0.2,0.2,0.4,0.2,0.6l-0.1,0.5c-0.1,0.4-0.4,0.6-0.8,0.6H129v10.3h9.3c0.4,0,0.8,0.3,0.8,0.8v0.5c0,0.4-0.3,0.8-0.8,0.8H129
				v11.8h11.3c0.4,0,0.8,0.3,0.8,0.8v0.5C141.1,157.6,140.8,157.9,140.4,157.9z"/>
		</g>
	</g>
</g>
<g>
	<path fill="#1C1C1C" d="M157.7,131l-6.1,17.6h12.2L157.7,131z M151.5,149.1l-2.8,8.1h-0.6l9.3-26.7h0.7l9.4,26.7h-0.6l-2.8-8.1
		H151.5z"/>
</g>
<g>
	<g>
		<defs>
			<rect id="SVGID_9_" x="28.6" y="129.8" width="350.4" height="46.2"/>
		</defs>
		<clipPath id="SVGID_10_">
			<use xlink:href="#SVGID_9_"  overflow="visible"/>
		</clipPath>
		<g clip-path="url(#SVGID_10_)">
			<path fill="#1C1C1C" d="M168,157.9h-0.6c-0.3,0-0.6-0.2-0.7-0.5l-2.7-7.6h-11.5l-2.7,7.6c-0.1,0.3-0.4,0.5-0.7,0.5h-0.6
				c-0.3,0-0.5-0.1-0.6-0.3s-0.2-0.4-0.1-0.7l9.3-26.7c0.1-0.3,0.4-0.5,0.7-0.5h0.7c0.3,0,0.6,0.2,0.7,0.5l9.4,26.7
				c0.1,0.2,0.1,0.5-0.1,0.7C168.5,157.8,168.3,157.9,168,157.9z M153.2,147.8h10.1l-5.1-14.5L153.2,147.8z"/>
		</g>
	</g>
	<g>
		<defs>
			<rect id="SVGID_11_" x="28.6" y="129.8" width="350.4" height="46.2"/>
		</defs>
		<clipPath id="SVGID_12_">
			<use xlink:href="#SVGID_11_"  overflow="visible"/>
		</clipPath>
		<g clip-path="url(#SVGID_12_)">
			<path fill="#1C1C1C" d="M192,137.4c0-4-2.1-6.4-8.1-6.4h-5v12.8h6.1C188.9,143.8,192,142,192,137.4 M178.9,144.3v12.8h-0.6v-26.7
				h5.6c6.2,0,8.6,2.6,8.6,6.9c0,4.5-2.9,6.4-6.3,6.9l7.5,12.9H193l-7.4-12.9H178.9z"/>
		</g>
	</g>
	<g>
		<defs>
			<rect id="SVGID_13_" x="28.6" y="129.8" width="350.4" height="46.2"/>
		</defs>
		<clipPath id="SVGID_14_">
			<use xlink:href="#SVGID_13_"  overflow="visible"/>
		</clipPath>
		<g clip-path="url(#SVGID_14_)">
			<path fill="#1C1C1C" d="M193.7,157.9H193c-0.3,0-0.5-0.1-0.6-0.4l-7.2-12.5h-5.6v12.1c0,0.4-0.3,0.8-0.8,0.8h-0.6
				c-0.4,0-0.8-0.3-0.8-0.8v-26.7c0-0.4,0.3-0.8,0.8-0.8h5.6c6.2,0,9.4,2.6,9.4,7.6c0,3.9-2.1,6.5-5.9,7.4l6.9,12
				c0.1,0.2,0.1,0.5,0,0.8C194.2,157.8,194,157.9,193.7,157.9z M179.6,143.1h5.3c2.4,0,6.3-0.7,6.3-5.6c0-5-3.7-5.6-7.4-5.6h-4.3
				V143.1z"/>
		</g>
	</g>
</g>
<g>
	<polygon fill="#1C1C1C" points="217.1,156.7 217,157.2 205.2,157.2 205.2,130.5 205.8,130.5 205.8,156.7 	"/>
</g>
<g>
	<g>
		<defs>
			<rect id="SVGID_15_" x="28.6" y="129.8" width="350.4" height="46.2"/>
		</defs>
		<clipPath id="SVGID_16_">
			<use xlink:href="#SVGID_15_"  overflow="visible"/>
		</clipPath>
		<g clip-path="url(#SVGID_16_)">
			<path fill="#1C1C1C" d="M217,157.9h-11.7c-0.4,0-0.8-0.3-0.8-0.8v-26.7c0-0.4,0.3-0.8,0.8-0.8h0.6c0.4,0,0.8,0.3,0.8,0.8v25.4
				h10.5c0.2,0,0.4,0.1,0.6,0.3c0.1,0.2,0.2,0.4,0.2,0.6l-0.1,0.6C217.7,157.7,217.4,157.9,217,157.9z"/>
		</g>
	</g>
</g>
<g>
	<polygon fill="#1C1C1C" points="228.6,157.2 228,157.2 228,146.6 219.6,130.5 220.2,130.5 228.3,146.1 236.3,130.5 236.9,130.5 
		228.6,146.6 	"/>
</g>
<g>
	<g>
		<defs>
			<rect id="SVGID_17_" x="28.6" y="129.8" width="350.4" height="46.2"/>
		</defs>
		<clipPath id="SVGID_18_">
			<use xlink:href="#SVGID_17_"  overflow="visible"/>
		</clipPath>
		<g clip-path="url(#SVGID_18_)">
			<path fill="#1C1C1C" d="M228.6,157.9H228c-0.4,0-0.8-0.3-0.8-0.8v-10.4l-8.3-15.9c-0.1-0.2-0.1-0.5,0-0.7
				c0.1-0.2,0.4-0.4,0.6-0.4h0.6c0.3,0,0.5,0.2,0.7,0.4l7.4,14.3l7.3-14.3c0.1-0.3,0.4-0.4,0.7-0.4h0.6c0.3,0,0.5,0.1,0.6,0.4
				c0.1,0.2,0.1,0.5,0,0.7l-8.3,15.9v10.4C229.3,157.6,229,157.9,228.6,157.9z"/>
		</g>
	</g>
</g>
<g>
	<polygon fill="#1C1C1C" points="264.5,143.3 264.5,157.2 263.9,157.2 263.9,130.5 264.5,130.5 264.5,142.8 279.2,142.8 
		279.2,130.5 279.8,130.5 279.8,157.2 279.2,157.2 279.2,143.3 	"/>
</g>
<g>
	<g>
		<defs>
			<rect id="SVGID_19_" x="28.6" y="129.8" width="350.4" height="46.2"/>
		</defs>
		<clipPath id="SVGID_20_">
			<use xlink:href="#SVGID_19_"  overflow="visible"/>
		</clipPath>
		<g clip-path="url(#SVGID_20_)">
			<path fill="#1C1C1C" d="M279.8,157.9h-0.6c-0.4,0-0.8-0.3-0.8-0.8v-13.1h-13.3v13.1c0,0.4-0.3,0.8-0.8,0.8h-0.6
				c-0.4,0-0.8-0.3-0.8-0.8v-26.7c0-0.4,0.3-0.8,0.8-0.8h0.6c0.4,0,0.8,0.3,0.8,0.8v11.6h13.3v-11.6c0-0.4,0.3-0.8,0.8-0.8h0.6
				c0.4,0,0.8,0.3,0.8,0.8v26.7C280.6,157.6,280.2,157.9,279.8,157.9z"/>
		</g>
	</g>
	<g>
		<defs>
			<rect id="SVGID_21_" x="28.6" y="129.8" width="350.4" height="46.2"/>
		</defs>
		<clipPath id="SVGID_22_">
			<use xlink:href="#SVGID_21_"  overflow="visible"/>
		</clipPath>
		<g clip-path="url(#SVGID_22_)">
			<path fill="#1C1C1C" d="M339.9,157.6c-5.8,0-8-3.6-8-8.5v-18.6h0.6V149c0,4.6,2,8,7.4,8c5.4,0,7.4-3.4,7.4-8v-18.5h0.6v18.6
				C347.8,154,345.6,157.6,339.9,157.6"/>
		</g>
	</g>
	<g>
		<defs>
			<rect id="SVGID_23_" x="28.6" y="129.8" width="350.4" height="46.2"/>
		</defs>
		<clipPath id="SVGID_24_">
			<use xlink:href="#SVGID_23_"  overflow="visible"/>
		</clipPath>
		<g clip-path="url(#SVGID_24_)">
			<path fill="#1C1C1C" d="M339.9,158.3c-5.6,0-8.7-3.3-8.7-9.2v-18.6c0-0.4,0.3-0.8,0.8-0.8h0.6c0.4,0,0.8,0.3,0.8,0.8V149
				c0,4.8,2.2,7.2,6.7,7.2c4.4,0,6.6-2.4,6.6-7.2v-18.5c0-0.4,0.3-0.8,0.8-0.8h0.6c0.4,0,0.8,0.3,0.8,0.8v18.6
				C348.6,154.9,345.4,158.3,339.9,158.3z"/>
		</g>
	</g>
	<g>
		<defs>
			<rect id="SVGID_25_" x="28.6" y="129.8" width="350.4" height="46.2"/>
		</defs>
		<clipPath id="SVGID_26_">
			<use xlink:href="#SVGID_25_"  overflow="visible"/>
		</clipPath>
		<g clip-path="url(#SVGID_26_)">
			<path fill="#1C1C1C" d="M376.5,137.4c0-4-2.1-6.4-8.1-6.4h-5v12.8h6.1C373.4,143.8,376.5,142,376.5,137.4 M363.3,144.3v12.8h-0.6
				v-26.7h5.6c6.2,0,8.6,2.6,8.6,6.9c0,4.5-2.9,6.4-6.3,6.9l7.5,12.9h-0.7l-7.4-12.8L363.3,144.3L363.3,144.3z"/>
		</g>
	</g>
	<g>
		<defs>
			<rect id="SVGID_27_" x="28.6" y="129.8" width="350.4" height="46.2"/>
		</defs>
		<clipPath id="SVGID_28_">
			<use xlink:href="#SVGID_27_"  overflow="visible"/>
		</clipPath>
		<g clip-path="url(#SVGID_28_)">
			<path fill="#1C1C1C" d="M378.2,157.9h-0.7c-0.3,0-0.5-0.1-0.6-0.4l-7.2-12.5h-5.6v12.1c0,0.4-0.3,0.8-0.8,0.8h-0.6
				c-0.4,0-0.8-0.3-0.8-0.8v-26.7c0-0.4,0.3-0.8,0.8-0.8h5.6c6.2,0,9.4,2.6,9.4,7.6c0,3.9-2.1,6.5-5.9,7.4l6.9,12
				c0.1,0.2,0.1,0.5,0,0.8C378.7,157.8,378.5,157.9,378.2,157.9z M364.1,143.1h5.3c2.4,0,6.3-0.7,6.3-5.6c0-5-3.7-5.6-7.4-5.6h-4.3
				L364.1,143.1L364.1,143.1z"/>
		</g>
	</g>
</g>
<g>
	<g>
		<path fill="#FFBD00" d="M293.4,156.6c0-7.1,5.8-12.9,12.9-12.9c7.1,0,12.9,5.8,12.9,12.9c0,0.5,0,1-0.1,1.4h1.9
			c0.1-0.5,0.1-0.9,0.1-1.4c0-8.2-6.6-14.8-14.8-14.8c-8.2,0-14.8,6.6-14.8,14.8c0,0.5,0,1,0.1,1.4h1.9
			C293.4,157.5,293.4,157,293.4,156.6z"/>
	</g>
</g>
</svg>
